<svg width="64" height="82" viewBox="0 0 64 82" fill="none" xmlns="http://www.w3.org/2000/svg">
<path d="M57.8289 78.0063L0 78.7471L10.248 14.2582L50.9966 16.9092L57.8289 78.0063Z" fill="#8BC6FF"/>
<path d="M63.1967 81.3389H9.19043L9.49388 78.6258L57.8287 78.0064L51.2337 19.0314L57.8287 18.226L63.1967 81.3389Z" fill="#0051FF" fill-opacity="0.6"/>
<path d="M9.49414 78.626L15.6728 23.3724L51.234 19.0316L57.829 78.0066L9.49414 78.626Z" fill="#0051FF" fill-opacity="0.6"/>
<path d="M44.5271 12.5195H41.0717C41.0717 7.78445 37.6879 3.93277 33.5275 3.93277C29.3679 3.93277 25.9833 7.78445 25.9833 12.5195H22.5278C22.5278 5.61627 27.4624 -0.000436272 33.5275 -0.000436272C39.5926 -0.000436272 44.5271 5.61627 44.5271 12.5195Z" fill="#5982DA"/>
</svg>
