<svg width="101" height="101" viewBox="0 0 101 101" fill="none" xmlns="http://www.w3.org/2000/svg">
<path d="M29.3532 21.8018C26.6639 21.8299 23.9714 21.979 21.2909 21.8547C15.9844 21.6076 10.4842 25.9126 9.54915 31.4445C9.20564 33.4918 9.11046 35.5785 8.90383 37.6483C8.63864 40.2986 8.36561 42.945 8.11216 45.5972C7.88236 47.9953 7.68579 50.3951 7.45796 52.7952C7.20475 55.4825 6.92419 58.17 6.67096 60.8554C6.50874 62.5636 6.38562 64.2754 6.22146 65.9855C5.96799 68.6357 5.50355 71.2815 5.48838 73.9321C5.4738 76.0963 5.85589 78.2871 6.29227 80.419C7.00137 83.881 8.6222 86.9951 10.8768 89.6693C14.4802 93.9476 18.9447 97.0403 24.5475 98.0687C26.9392 98.5075 29.4112 98.6919 31.8468 98.689C44.511 98.6654 57.1783 98.5304 69.8442 98.4657C76.1723 98.4344 81.733 96.4395 86.4719 92.208C90.7818 88.3641 93.3236 83.5792 94.2947 77.8927C94.8094 74.8853 94.4164 71.9445 94.0446 68.9782C93.8236 67.2023 93.6962 65.4161 93.5024 63.638C93.2149 60.9895 92.8981 58.3451 92.6105 55.6967C92.4209 53.9538 92.2743 52.2067 92.0866 50.4618C91.7969 47.7782 91.474 45.0967 91.1881 42.413C90.9963 40.6331 90.8748 38.8467 90.6635 37.0688C90.3899 34.7542 90.2275 32.4057 89.714 30.1415C88.6205 25.2993 83.6351 21.4288 78.7213 21.4837C75.8875 21.5147 73.0534 21.5203 70.0125 21.539C67.075 21.5551 64.3465 21.5658 61.5126 21.587C53.5206 21.6433 45.6341 21.693 37.6421 21.7494C34.8082 21.7706 32.0797 21.7852 29.3492 21.796M55.7838 61.1953C52.517 62.1804 49.2172 62.3415 45.8554 61.7159C36.6424 60.0012 29.5054 51.364 29.6432 42.0503C29.6757 39.9309 31.0689 38.2983 33.1176 37.9836C35.0239 37.6914 36.9759 38.9554 37.5124 40.8835C37.6605 41.404 37.6643 41.9704 37.7013 42.519C38.0425 47.6066 41.2468 51.788 46.0469 53.396C50.6748 54.9447 55.7784 53.5135 59.0573 49.7098C61.065 47.3797 61.886 44.6182 61.9747 41.5726C62.034 39.3847 63.8839 37.6963 66.0287 37.7305C68.1482 37.763 69.8997 39.4249 69.969 41.5632C70.0033 42.5884 69.985 43.6354 69.818 44.6424C68.4442 52.8609 63.7664 58.3265 55.7838 61.1933L55.7838 61.1953Z" fill="#1C447F"/>
<path d="M61.618 21.5825C64.3504 21.5698 67.0789 21.5591 69.9128 21.5359C69.8235 10.1241 60.948 1.45771 49.9257 1.38032C38.126 1.2965 29.4989 10.4921 29.3525 21.7043C32.0856 21.7892 34.814 21.7746 37.6473 21.6576C37.826 20.6505 37.763 19.7095 37.9974 18.8525C39.6691 12.7921 45.3667 8.80212 51.8608 9.92009C57.2754 10.852 61.8387 16.1161 61.62 21.5825L61.618 21.5825Z" fill="#9AA6B8"/>
<path d="M55.8755 61.1756C63.7723 58.3328 68.4501 52.8672 69.8239 44.6487C69.9909 43.6417 70.0092 42.5947 69.9749 41.5695C69.9057 39.4332 68.1541 37.7693 66.0347 37.7368C63.8898 37.7026 62.0419 39.391 61.9806 41.5789C61.8939 44.6245 61.0728 47.386 59.0632 49.7161C55.7843 53.5198 50.6807 54.951 46.0528 53.4024C41.2527 51.7943 38.0484 47.6129 37.7072 42.5253C37.6702 41.9747 37.6664 41.4103 37.5183 40.8898C36.9818 38.9618 35.0278 37.6977 33.1235 37.9899C31.0748 38.3046 29.6796 39.9353 29.6491 42.0566C29.5113 51.3703 36.6483 60.0075 45.8614 61.7222C49.2231 62.3478 52.5229 62.1867 55.8755 61.1775L55.8755 61.1756Z" fill="#99A5B8"/>
</svg>
