<svg width="115" height="115" viewBox="0 0 115 115" fill="none" xmlns="http://www.w3.org/2000/svg">
<g clip-path="url(#clip0_22_133)">
<path d="M115 57.5C115 25.7436 89.2564 0 57.5 0C25.7436 0 0 25.7436 0 57.5C0 89.2564 25.7436 115 57.5 115C89.2564 115 115 89.2564 115 57.5Z" fill="white"/>
<path fill-rule="evenodd" clip-rule="evenodd" d="M21.5588 21.719C20.1185 21.2126 18.5404 21.9697 18.034 23.41C17.5275 24.8504 18.2847 26.4285 19.725 26.9349L20.6878 27.2734C23.1485 28.1385 24.7657 28.7119 25.9557 29.2957C27.0734 29.8441 27.5661 30.288 27.8906 30.763C28.2233 31.2499 28.4802 31.9186 28.6252 33.2578C28.7769 34.6592 28.7806 36.4845 28.7806 39.2119V49.2436C28.7806 54.5974 28.8309 58.458 29.3361 61.4075C29.8754 64.5563 30.9521 66.8106 32.9655 68.9344C35.1544 71.2429 37.9292 72.2481 41.2326 72.7165C44.396 73.1651 48.413 73.1651 53.3734 73.1651H73.2982C76.0321 73.1651 78.3321 73.1651 80.1934 72.9373C82.168 72.6959 83.9689 72.1673 85.5409 70.8865C87.113 69.6053 87.9939 67.9481 88.6294 66.0631C89.2279 64.2858 89.6924 62.0333 90.2442 59.3559L92.1199 50.2539L92.1236 50.237L92.1619 50.0444C92.769 47.004 93.2795 44.4464 93.4067 42.3892C93.5397 40.2286 93.2939 38.0981 91.8866 36.2684C91.0204 35.1427 89.8029 34.5054 88.6953 34.1162C87.5656 33.7193 86.2881 33.4896 84.9991 33.3455C82.4665 33.0624 79.3903 33.0625 76.373 33.0625H34.1613C34.1492 32.9271 34.1361 32.7938 34.1219 32.6628C33.9239 30.8332 33.4948 29.1646 32.4554 27.6436C31.408 26.1108 30.0153 25.1291 28.3911 24.3322C26.8722 23.5869 24.9422 22.9084 22.6697 22.1096L21.5588 21.719ZM34.3095 38.5914H43.8767L48.9997 67.6215C46.1142 67.5924 43.8569 67.5047 42.0089 67.2426C39.3742 66.8689 37.9823 66.1899 36.9777 65.1302C35.7976 63.8859 35.1611 62.6669 34.7855 60.4742C34.3758 58.0817 34.3095 54.7319 34.3095 49.2436V38.5914ZM54.6166 67.6363H65.9139L71.0395 38.5914H49.491L54.6166 67.6363ZM71.5283 67.6363L76.6539 38.5914C79.6468 38.5921 82.2845 38.6054 84.3847 38.8401C85.4742 38.9619 86.2896 39.1311 86.8623 39.3324C87.3305 39.4969 87.4889 39.6313 87.5118 39.6507C87.7381 39.9508 87.984 40.4952 87.8881 42.0486C87.7871 43.6836 87.3577 45.8666 86.7031 49.1468L86.7016 49.155L84.8631 58.0754C84.2682 60.9607 83.8679 62.8789 83.3899 64.2972C82.9361 65.644 82.51 66.2242 82.0482 66.6005C81.5867 66.9765 80.9325 67.2769 79.5219 67.4494C78.0357 67.6315 76.0767 67.6363 73.1305 67.6363H71.5283Z" fill="#3880FF" stroke="#3057B0" stroke-width="1.57538"/>
<path fill-rule="evenodd" clip-rule="evenodd" d="M40.9144 93.4376C36.3341 93.4376 32.6211 89.7244 32.6211 85.1443C32.6211 80.5639 36.3341 76.8511 40.9144 76.8511C45.4946 76.8511 49.2076 80.5639 49.2076 85.1443C49.2076 89.7244 45.4946 93.4376 40.9144 93.4376ZM38.1499 85.1443C38.1499 86.671 39.3876 87.9088 40.9144 87.9088C42.4411 87.9088 43.6788 86.671 43.6788 85.1443C43.6788 83.6176 42.4411 82.3799 40.9144 82.3799C39.3876 82.3799 38.1499 83.6176 38.1499 85.1443Z" fill="#3880FF" stroke="#3057B0" stroke-width="1.57538"/>
<path fill-rule="evenodd" clip-rule="evenodd" d="M74.0875 93.4379C69.5074 93.4379 65.7942 89.7247 65.7942 85.1446C65.7942 80.5641 69.5074 76.8513 74.0875 76.8513C78.6676 76.8513 82.3807 80.5641 82.3807 85.1446C82.3807 89.7247 78.6676 93.4379 74.0875 93.4379ZM71.323 85.1446C71.323 86.6713 72.5608 87.909 74.0875 87.909C75.6142 87.909 76.8519 86.6713 76.8519 85.1446C76.8519 83.6179 75.6142 82.3802 74.0875 82.3802C72.5608 82.3802 71.323 83.6179 71.323 85.1446Z" fill="#3880FF" stroke="#3057B0" stroke-width="1.57538"/>
</g>
<defs>
<clipPath id="clip0_22_133">
<rect width="115" height="115" fill="white"/>
</clipPath>
</defs>
</svg>
